<svg id='Heavy_Dollar_Sign_24' width='24' height='24' viewBox='0 0 24 24' xmlns='http://www.w3.org/2000/svg' xmlns:xlink='http://www.w3.org/1999/xlink'><rect width='24' height='24' stroke='none' fill='#000000' opacity='0'/>


<g transform="matrix(0.5 0 0 0.5 12 12)" >
<linearGradient id="SVGID_fDWV7FvHONaUhUvUZ1QKDa_1" gradientUnits="userSpaceOnUse" gradientTransform="matrix(1 0 0 1 0 0)" x1="24.02" y1="4" x2="24.02" y2="44">
<stop offset="27.800000000000004%" style="stop-color:rgb(74,219,46);stop-opacity: 1"/>
<stop offset="55.400000000000006%" style="stop-color:rgb(67,206,33);stop-opacity: 1"/>
<stop offset="100%" style="stop-color:rgb(51,176,4);stop-opacity: 1"/>
</linearGradient>
<path style="stroke: none; stroke-width: 1; stroke-dasharray: none; stroke-linecap: butt; stroke-dashoffset: 0; stroke-linejoin: miter; stroke-miterlimit: 4; fill: url(#SVGID_fDWV7FvHONaUhUvUZ1QKDa_1); fill-rule: nonzero; opacity: 1;" transform=" translate(-24.02, -24)" d="M 36.26 27.952 C 35.74511378945951 26.92900805851101 35.01914584658003 26.026830995223698 34.12999999999999 25.305 C 33.08349605107455 24.46437229155942 31.930102462258407 23.766283343926098 30.699999999999996 23.229000000000006 C 29.01123129294624 22.487315140057337 27.285645414142024 21.832460305586583 25.529999999999944 21.267 C 23.98353919801488 20.853899798096325 22.523744258557834 20.16667846812919 21.219999999999995 19.238000000000003 C 20.451841873309245 18.581155215923072 20.024836848682835 17.61008689267783 20.06 16.6 C 20.00642023137085 15.469752161515393 20.439631829293777 14.370705258885708 21.249999999999996 13.581000000000003 C 22.20500843380628 12.852379903653697 23.39127285931217 12.493659224084551 24.589999999999996 12.571000000000002 C 25.879740500832362 12.50768082818158 27.139713187285526 12.971957296599566 28.079999999999995 13.856999999999998 C 28.71902290031127 14.616401182685658 29.121598393361662 15.546357524576674 29.238 16.532 C 29.327448406944203 17.00227595520483 29.742358825466916 17.33994465797001 30.221 17.332 L 35.845 17.332 C 36.13177454732585 17.339727997346465 36.40742630904815 17.220897442616725 36.59869862982769 17.007088503980988 C 36.78997095060723 16.793279565345248 36.877491136607354 16.506147519901884 36.838 16.222 C 36.562985358316936 14.302256223761011 35.70092472319518 12.514563221105757 34.370000000000005 11.104 C 32.36704076942572 9.24617464659063 29.7939534775402 8.121418270096559 27.07 7.9129999999999985 L 27 7.907 L 27 4.952 C 26.986360441713245 4.413140722835924 26.53887839283432 3.987137812303187 26 4 L 23 4 C 22.46112160716568 3.987137812303188 22.013639558286755 4.413140722835924 22 4.952 L 22 7.942 C 19.417616644552684 8.153550576901855 16.941968906329535 9.06601347930002 14.839999999999993 10.581000000000001 C 13.003060009642795 12.019176051888207 11.950798009516568 14.238559636661481 12 16.571000000000005 C 11.966693980218746 17.840528684833973 12.252051572282962 19.09816491588325 12.830000000000002 20.229000000000003 C 13.400518791851653 21.27841415657017 14.192085100351044 22.191444950339303 15.149999999999999 22.905 C 16.409326914832935 23.725211526573464 17.75802961297642 24.39922737746159 19.17 24.914 C 20.788046769666124 25.590385100378757 22.44029427801547 26.18185632963028 24.119999999999983 26.685999999999993 C 25.476696549730267 27.04468937587052 26.73473033315702 27.705498969175927 27.800000000000004 28.619 C 28.60627738470092 29.33269597002347 29.047238297801623 30.37226132265838 29 31.448 C 29.034324182435295 32.591772855333765 28.54005961430122 33.687638550801175 27.66 34.419 C 26.728144182571345 35.147704245765816 25.560353555852735 35.50729831070051 24.38 35.428999999999995 C 22.830634568818276 35.533695079935576 21.299746628425936 35.0429524971743 20.099999999999998 34.056999999999995 C 19.081996057966307 33.105309720438434 18.376020601217952 31.867673734533913 18.075 30.506999999999998 C 17.983211535885395 30.040797423422447 17.57110076098316 29.70698348624423 17.096 29.713999999999995 L 12.043 29.713999999999995 C 11.767317466093406 29.70858656627368 11.502036014686396 29.81920883799406 11.311873477329618 30.01887950221868 C 11.121710939972838 30.218550166443297 11.024153069892659 30.488909182284466 11.043 30.763999999999996 C 11.174325750716786 33.12734113174705 12.220536793456112 35.346728835713776 13.959999999999999 36.952 C 15.877999999999998 38.677 18.570999999999998 39.629 22 40.059 L 22 43.047999999999995 C 22.01363955828675 43.58685927716407 22.461121607165676 44.01286218769681 23 44 L 26 44 C 26.53887839283432 44.01286218769681 26.986360441713245 43.58685927716408 27 43.048 L 27 40.024 C 29.61247360274198 39.87052068779824 32.12111937029466 38.94743646847546 34.21 37.371 C 36.03037376455191 35.93264267760773 37.06464720422436 33.719149233778275 37 31.4 C 37.025670194000426 30.208678344188222 36.77224949167636 29.027874855521514 36.26 27.952 Z" stroke-linecap="round" />
</g>
</svg>